<?xml version="1.0" encoding="UTF-8" standalone="no"?>
<!-- Generator: Adobe Illustrator 19.0.0, SVG Export Plug-In . SVG Version: 6.00 Build 0)  -->

<svg
   xmlnsDc="http://purl.org/dc/elements/1.1/"
   xmlnsCc="http://creativecommons.org/ns#"
   xmlnsRdf="http://www.w3.org/1999/02/22-rdf-syntax-ns#"
   xmlnsSvg="http://www.w3.org/2000/svg"
   xmlns="http://www.w3.org/2000/svg"
   xmlnsSodipodi="http://sodipodi.sourceforge.net/DTD/sodipodi-0.dtd"
   xmlnsInkscape="http://www.inkscape.org/namespaces/inkscape"
   version="1.1"
   id="Layer_1"
   x="0px"
   y="0px"
   viewBox="0 0 496.162 496.162"
   style="enable-background:new 0 0 496.162 496.162;"
   xmlSpace="preserve"
   sodipodiDocname="wind-svgrepo-com.svg"
   inkscapeVersion="0.92.3 (2405546, 2018-03-11)"><metadata
   id="metadata57"><rdfRDF><ccWork
       rdfAbout=""><dcFormat>image/svg+xml</dcFormat><dcType
         rdfResource="http://purl.org/dc/dcmitype/StillImage" /></ccWork></rdfRDF></metadata><defs
   id="defs55" /><sodipodiNamedview
   pagecolor="#ffffff"
   bordercolor="#666666"
   borderopacity="1"
   objecttolerance="10"
   gridtolerance="10"
   guidetolerance="10"
   inkscapePageopacity="0"
   inkscapePageshadow="2"
   inkscapeWindow-width="1024"
   inkscapeWindow-height="688"
   id="namedview53"
   showgrid="false"
   inkscapeZoom="0.8714077"
   inkscapeCx="248.08099"
   inkscapeCy="248.08099"
   inkscapeWindow-x="0"
   inkscapeWindow-y="0"
   inkscapeWindow-maximized="1"
   inkscapeCurrent-layer="Layer_1" />
<path
   style="fill:#D0E8EA;"
   d="M248.077,0C111.072,0,0.002,111.062,0.002,248.083c0,137.002,111.07,248.079,248.075,248.079  c137.013,0,248.083-111.077,248.083-248.079C496.16,111.062,385.09,0,248.077,0z"
   id="path2" />
<g
   style="opacity:0.5;"
   id="g6">
	<path
   style="fill:#F9F9F9;"
   d="M404.775,55.776c-5.99-4.885-12.195-9.502-18.629-13.82c-26.372-17.696-56.315-30.473-88.532-36.998   c-0.987-0.203-1.997-0.345-2.991-0.535C279.544,1.558,263.99,0,248.077,0c-19.884,0-39.193,2.402-57.723,6.824   c-6.694,1.592-13.281,3.451-19.746,5.578c-28.032,9.211-53.844,23.276-76.475,41.213c-10.917,8.652-21.115,18.17-30.426,28.506   c-19.379,21.521-35.009,46.469-45.949,73.801c10.458,18.847,29.378,32.675,52.406,35.602c20.603,2.616,40.203-4.055,54.739-16.679   c10.718,11.216,25.193,18.981,41.787,21.093c14.498,1.844,28.513-0.896,40.616-7.069c10.979,14.49,27.534,24.75,46.997,27.221   c27.511,3.496,53.248-9.51,67.462-31.252c9.548,7.375,21.084,12.439,33.915,14.069c22.867,2.906,44.495-5.608,59.33-21.031   c24.237-1.951,45.528-16.472,56.506-37.698C455.635,107.36,432.737,78.586,404.775,55.776z"
   id="path4" />
</g>
<g
   style="opacity:0.5;"
   id="g10">
	<path
   style="fill:#FFFFFF;"
   d="M372.949,33.747c-5.661-3.306-11.43-6.449-17.359-9.304c-14.023-6.755-28.781-12.194-44.113-16.237   c-0.788-0.211-1.576-0.421-2.372-0.62c-15.423-3.905-31.413-6.369-47.839-7.233C256.898,0.124,252.498,0,248.077,0   c-11.805,0-23.395,0.88-34.756,2.472c-21.834,3.063-42.774,8.928-62.397,17.29c-0.956,0.405-1.882,0.856-2.831,1.277   c-8.683,3.825-17.091,8.141-25.224,12.899C95.48,49.989,71.465,71.126,52.087,96.079c-0.704,0.906-1.438,1.794-2.135,2.712   c0.911,0.367,1.859,0.658,2.785,0.987c5.906,31.172,31.987,55.818,65.137,58.396c14.979,1.163,29.232-2.353,41.351-9.304   c12.004,14.338,29.523,24.038,49.629,25.599c28.422,2.204,54.204-12.439,67.707-35.482c10.175,7.1,22.278,11.721,35.537,12.749   c23.625,1.836,45.406-7.99,59.865-24.577c26.861-3.488,49.43-21.941,58.45-47.249C413.71,61.816,394.347,46.24,372.949,33.747z"
   id="path8" />
</g>
<path
   style="fill:#F9F9F9;"
   d="M248.077,0c-74.676,0-141.588,33.035-187.07,85.242c4.108-0.383,8.117-1.078,12.011-2.081  c12.554,23.021,36.967,38.643,65.037,38.643c18.736,0,35.789-7.016,48.833-18.487c13.036,11.472,30.097,18.487,48.833,18.487  c32.117,0,59.375-20.491,69.627-49.085c12.271,9.031,27.373,14.433,43.784,14.433c23.877,0,45.054-11.354,58.595-28.904  C364.579,21.919,308.899,0,248.077,0z"
   id="path12" />

<g
   id="g22">
</g>
<g
   id="g24">
</g>
<g
   id="g26">
</g>
<g
   id="g28">
</g>
<g
   id="g30">
</g>
<g
   id="g32">
</g>
<g
   id="g34">
</g>
<g
   id="g36">
</g>
<g
   id="g38">
</g>
<g
   id="g40">
</g>
<g
   id="g42">
</g>
<g
   id="g44">
</g>
<g
   id="g46">
</g>
<g
   id="g48">
</g>
<g
   id="g50">
</g>
</svg>
